<?xml version="1.0" encoding="UTF-8"?>
<!DOCTYPE svg PUBLIC "-//W3C//DTD SVG 1.1//EN" "http://www.w3.org/Graphics/SVG/1.1/DTD/svg11.dtd">
<svg version="1.1" xmlns="http://www.w3.org/2000/svg" xmlns:xlink="http://www.w3.org/1999/xlink" x="0px" y="0px" width="128" height="128" viewBox="0, 0, 128, 128">
  <g id="Background">
    <rect x="0" y="0" width="128" height="128" fill="#000000" fill-opacity="0"/>
  </g>
  <g id="Background">
    <path d="M18.093,6 L109.907,6 C116.561,6 122,11.439 122,18.093 L122,109.905 C122,116.561 116.561,122 109.907,122 L18.093,122 C11.439,122 6,116.561 6,109.905 L6,18.093 C6,11.439 11.439,6 18.093,6" fill="#727272"/>
    <path d="M44.148,29.145 C47.942,29.145 51.267,29.624 54.13,30.587 C56.993,31.551 59.378,32.875 61.274,34.557 C63.173,36.242 64.585,38.201 65.516,40.439 C66.452,42.68 66.923,45.037 66.923,47.531 C66.923,49.833 66.238,52.244 64.867,54.765 C63.502,57.286 61.227,59.231 58.053,60.597 C59.793,61.163 61.305,61.986 62.574,63.077 C63.853,64.164 64.899,65.355 65.708,66.666 C66.512,67.978 67.109,69.357 67.48,70.823 C67.854,72.279 68.041,73.668 68.041,74.968 C68.041,77.96 67.461,80.696 66.315,83.19 C65.165,85.674 63.542,87.793 61.466,89.533 C59.378,91.273 56.884,92.629 53.989,93.593 C51.098,94.561 47.882,95.046 44.33,95.046 C40.91,95.046 37.716,94.589 34.762,93.69 C31.807,92.784 29.26,91.479 27.109,89.766 C24.971,88.057 23.281,85.988 22.076,83.559 C20.861,81.134 20.249,78.398 20.249,75.349 C20.249,74.166 20.39,72.892 20.674,71.521 C20.951,70.146 21.449,68.817 22.163,67.507 C22.883,66.196 23.833,64.991 25.016,63.866 C26.19,62.748 27.689,61.78 29.492,60.971 L29.492,60.881 C27.993,60.323 26.743,59.524 25.715,58.496 C24.687,57.478 23.861,56.341 23.236,55.094 C22.614,53.847 22.163,52.559 21.889,51.216 C21.605,49.879 21.463,48.654 21.463,47.531 C21.463,44.982 22.043,42.585 23.189,40.342 C24.341,38.109 25.934,36.163 27.948,34.505 C29.972,32.862 32.369,31.551 35.142,30.587 C37.908,29.624 40.91,29.145 44.148,29.145 z M48.815,48.841 C48.815,46.969 48.408,45.508 47.6,44.452 C46.792,43.394 45.641,42.869 44.148,42.869 C41.096,42.869 39.571,44.86 39.571,48.841 C39.571,50.828 40.023,52.294 40.927,53.226 C41.828,54.158 42.901,54.628 44.148,54.628 C45.39,54.628 46.476,54.113 47.412,53.085 C48.345,52.057 48.815,50.645 48.815,48.841 z M49.938,74.134 C49.938,71.959 49.371,70.306 48.248,69.183 C47.138,68.068 45.764,67.507 44.148,67.507 C42.525,67.507 41.161,68.1 40.041,69.278 C38.918,70.462 38.361,72.078 38.361,74.134 C38.361,76.435 38.886,78.162 39.946,79.317 C41.005,80.467 42.398,81.039 44.148,81.039 C45.951,81.039 47.362,80.39 48.39,79.08 C49.418,77.769 49.938,76.125 49.938,74.134" fill="#EBEDED"/>
    <path d="M104.605,62.154 C104.605,65.63 104.102,69.123 103.084,72.626 C102.069,76.133 100.677,79.581 98.91,82.971 C97.142,86.364 95.086,89.665 92.734,92.881 C90.392,96.1 87.885,99.156 85.222,102.051 L75.742,95.014 C79.568,90.031 82.455,84.642 84.395,78.842 C86.332,73.051 87.305,67.338 87.305,61.715 C87.305,56.619 86.391,51.198 84.564,45.458 C82.737,39.725 79.834,34.251 75.829,29.036 L85.565,22.773 C88.173,25.61 90.638,28.596 92.953,31.729 C95.27,34.853 97.302,38.092 99.037,41.42 C100.777,44.75 102.143,48.151 103.129,51.631 C104.115,55.111 104.605,58.619 104.605,62.154" fill="#EBEDED"/>
  </g>
  <defs/>
</svg>
